Coordinates
version=1
nRows=16
nColumns=36
inDegrees=yes

Units are S.I. units (second, meters, Newtons, ...)
If the header above contains a line with 'inDegrees', this indicates whether rotational values are in degrees (yes) or radians (no).

endheader
time	pelvis_tilt	pelvis_list	pelvis_rotation	pelvis_tx	pelvis_ty	pelvis_tz	hip_flexion_r	hip_adduction_r	hip_rotation_r	knee_angle_r	knee_angle_r_beta	ankle_angle_r	subtalar_angle_r	mtp_angle_r	hip_flexion_l	hip_adduction_l	hip_rotation_l	knee_angle_l	knee_angle_l_beta	ankle_angle_l	subtalar_angle_l	mtp_angle_l	lumbar_extension	lumbar_bending	lumbar_rotation	arm_flex_r	arm_add_r	arm_rot_r	elbow_flex_r	pro_sup_r	arm_flex_l	arm_add_l	arm_rot_l	elbow_flex_l	pro_sup_l
      0.00000000	      5.21821000	      0.05595360	      2.28521251	     -0.89569970	      1.24359220	     -0.08081202	    -10.91971373	     -0.71616127	     -1.14048230	      3.53997225	      0.06178417	     10.54002797	    -13.31142503	     -6.24853128	    -10.24028129	     -2.55536719	      4.31201342	      2.89918891	      0.05060039	     13.53254827	     -1.85893268	     -6.24853128	    -14.52855541	      2.07796816	     -0.29258636	      7.35256718	     -5.76431851	     19.88595623	     22.88978598	     71.37469262	      6.71368155	     -5.31673159	     22.10213885	     22.80000047	     64.88916310
      0.00416670	      5.20729295	      0.22838834	      2.02590339	     -0.89575574	      1.24561205	     -0.08054273	    -10.58207383	     -0.76107677	     -0.67021920	      4.01476714	      0.07007091	     13.36274673	    -10.83029541	     -6.85452260	     -9.76482674	     -1.79226029	      6.74630719	      3.43630640	      0.05997486	     12.41200463	     -3.32519380	     -6.85452260	    -14.50177607	      2.15459263	     -0.16571074	      7.29178373	     -4.57422301	     11.73097124	     22.93977251	     78.41598388	      6.52381421	     -4.37128262	     16.26215707	     23.04229101	     69.52909503
      0.00833330	      5.16125862	      0.79490415	      1.81219672	     -0.89682990	      1.24446203	     -0.07924076	    -10.69950626	     -1.41646968	     -1.33846511	      3.59593817	      0.06276096	     14.05562219	    -10.02680148	     -6.97454774	     -9.77193666	     -1.23594950	      7.31419876	      3.43990358	      0.06003764	     12.07990756	     -3.73397727	     -6.97454774	    -14.73243540	      1.21908750	     -0.04913279	      7.11963178	     -3.61503509	      8.36818832	     23.63969100	     77.35266436	      6.93862540	     -4.55342018	     15.06852568	     23.20302645	     69.18136779
      0.01250000	      6.57787308	      1.02930104	      1.52360214	     -0.89821501	      1.24653051	     -0.07876600	    -12.27784001	     -1.78245430	     -1.54840789	      3.38372708	      0.05905718	     14.41377038	     -9.21830885	     -6.99694178	    -11.74718302	     -0.98299921	      8.03102596	      2.72983182	      0.04764455	     11.56613050	     -4.35904036	     -6.99694178	    -16.76399710	      0.82797358	      0.27501482	      7.48277593	     -3.39395856	      7.67863014	     24.03822560	     77.30880235	      7.58135887	     -4.78460439	     15.02759598	     23.38804239	     69.33829045
      0.01666670	      7.36134146	      1.12986110	      1.47006465	     -0.89918855	      1.24727977	     -0.07819063	    -13.18541983	     -1.89758920	     -1.90999596	      3.25926854	      0.05688497	     14.80901090	     -8.43568309	     -7.10037332	    -12.80779902	     -0.90240799	      8.63378035	      2.27107223	      0.03963769	     11.35248099	     -4.85980505	     -7.10037332	    -17.94207685	      0.66410373	      0.49690096	      7.61605897	     -3.26216188	      7.44272143	     24.53220252	     75.76113536	      8.03896421	     -4.90368308	     15.27439015	     23.56699124	     68.75685715
      0.02083330	      8.06861244	      1.16618872	      1.23088375	     -0.89994381	      1.24836437	     -0.07782521	    -13.93349258	     -1.96312729	     -1.69293638	      3.19762306	      0.05580905	     14.88056989	     -8.46987716	     -7.18255328	    -13.65479181	     -0.83650799	      8.77375211	      2.06733522	      0.03608181	     11.35978588	     -5.18072508	     -7.18255328	    -19.07825287	      0.64538770	      0.92732900	      8.02633957	     -3.31995866	      7.96734670	     24.58160117	     74.75183683	      8.57639287	     -4.91167830	     16.04961724	     23.68909494	     68.52847569
      0.02500000	      8.53903713	      1.19781600	      1.14407777	     -0.90055238	      1.24869246	     -0.07750676	    -14.64983552	     -1.99023738	     -1.72438046	      2.77119253	      0.04836643	     14.95389299	     -8.21038216	     -7.24141198	    -14.18129184	     -0.78070865	      9.51961322	      1.89839327	      0.03313321	     11.05982084	     -6.14285550	     -7.24141198	    -19.84472059	      0.63877317	      1.31622497	      8.25266583	     -3.74234225	      9.80921605	     24.92216062	     75.23177550	      8.76434823	     -5.28511358	     18.06277279	     24.13917180	     69.75249173
      0.02916670	      8.78419145	      1.23204697	      0.97383470	     -0.90094675	      1.24907596	     -0.07757414	    -15.05470142	     -2.06138117	     -1.94486539	      2.44845077	      0.04273353	     15.11439797	     -7.58947359	     -7.28596837	    -14.40948786	     -0.71882922	      9.70390572	      1.92178221	      0.03354143	     11.19784954	     -6.53190109	     -7.28596837	    -20.14407004	      0.64005223	      1.58793616	      8.36604523	     -3.83458916	     10.04366481	     24.90981026	     74.20918768	      8.84028465	     -5.19301288	     18.03970599	     24.11621573	     69.20993287
      0.03333330	      8.94070172	      1.27063230	      0.75886554	     -0.90141943	      1.24913111	     -0.07695763	    -15.33764712	     -2.11206484	     -1.30377508	      2.13457378	      0.03725534	     14.80332210	     -8.33151476	     -7.34859106	    -14.60763528	     -0.63139895	     10.07639736	      1.81344680	      0.03165062	     10.89877159	     -7.21646388	     -7.34859106	    -20.36708792	      0.60499908	      1.84389213	      8.47406170	     -4.28988907	     11.94887958	     25.15762073	     75.13785384	      8.85165110	     -5.44962646	     19.27749686	     24.42141364	     70.76569786
      0.03750000	      9.02567703	      1.19884951	      0.59363177	     -0.90160739	      1.24919875	     -0.07693337	    -15.38347641	     -2.08277958	     -1.09682771	      2.17476423	      0.03795680	     14.60609118	     -8.77921610	     -7.37858744	    -14.72600284	     -0.68452697	     10.13506260	      1.78680529	      0.03118564	     10.94666220	     -7.49755274	     -7.37858744	    -20.48012690	      0.70097891	      1.97732396	      8.46708318	     -4.47217102	     12.41254304	     25.38842307	     75.48983721	      8.77317711	     -5.48236471	     19.36748413	     24.55703685	     71.42958188
      0.04166670	      9.13605313	      1.12974653	      0.43453291	     -0.90182258	      1.24935483	     -0.07658156	    -15.29626380	     -2.02617829	     -1.08868258	      2.44336286	      0.04264473	     14.53147013	     -8.83575998	     -7.42435563	    -14.86524891	     -0.71797475	     10.28652127	      1.76587344	      0.03082031	     10.93079906	     -7.72442123	     -7.42435563	    -20.68763044	      0.81254598	      2.07689926	      8.56646468	     -4.73448601	     13.20785276	     25.57525107	     75.05148426	      8.71397783	     -5.55414585	     19.58186021	     24.67517801	     71.46847717
      0.04583330	      9.23244761	      1.01886117	      0.29521301	     -0.90167091	      1.24952112	     -0.07674323	    -15.15736606	     -1.94220144	     -1.26145633	      2.81168064	      0.04907308	     14.70896570	     -8.49586941	     -7.43610902	    -14.91494860	     -0.77592811	     10.40063368	      1.87554954	      0.03273451	     10.95724379	     -7.92207494	     -7.43610902	    -20.84237704	      0.96228072	      2.10378563	      8.66087281	     -4.85481081	     13.37350698	     25.62955343	     74.42487813	      8.66146093	     -5.50735822	     19.52098322	     24.52933110	     71.02662177
      0.05000000	      9.28295532	      0.98965916	      0.23066517	     -0.90216947	      1.24209211	     -0.07643273	    -15.05713674	     -1.92440007	     -1.17802241	      3.05049929	      0.05324126	     14.74660003	     -8.80386246	     -7.44013364	    -14.92222977	     -0.78119884	     10.94639765	      2.00142277	      0.03493142	     10.87160789	     -8.81777029	     -7.44013364	    -20.89902337	      1.00914901	      2.04700041	      8.73207548	     -5.07070706	     14.18099883	     25.79773291	     75.26010610	      8.54655995	     -5.68994030	     19.76876121	     24.71801372	     71.90989891
      0.05416670	      9.07727592	      0.93076568	      0.07154236	     -0.90182458	      1.24265088	     -0.07660765	    -14.69323218	     -1.91269962	     -1.06080673	      3.30202242	      0.05763116	     14.84705898	     -8.87079936	     -7.45253388	    -14.70503180	     -0.80050063	     11.15839940	      2.06944594	      0.03611865	     10.84072174	     -9.20777901	     -7.45253388	    -20.47837098	      1.08194356	      2.16570439	      8.74586187	     -5.27480851	     14.91054423	     25.51193450	     77.08774238	      8.47989342	     -5.72067854	     20.30149132	     24.39688916	     73.79404025
      0.05833330	      9.14950801	      0.89883620	     -0.01712677	     -0.89539897	      1.24687686	     -0.07177613	    -14.83450054	     -1.80274844	     -0.95640471	      3.41664949	      0.05963178	     14.86787852	     -8.88979334	     -7.45271498	    -14.94306111	     -0.92049768	     11.14176914	      2.12106917	      0.03701964	     10.85533114	     -9.20399101	     -7.45271498	    -20.22867844	      1.05157753	      2.22621952	      8.44142092	     -5.20692882	     14.89636854	     25.51170243	     77.15768451	      8.13810483	     -5.90652468	     20.26882698	     24.38545796	     73.86615733
      0.06250000	      8.90602300	      0.84280623	     -0.15137729	     -0.89469636	      1.25076059	     -0.07196703	    -14.66980021	     -1.69126922	     -0.72874187	      3.40804520	      0.05948161	     14.82251094	     -9.03979643	     -7.47069727	    -14.92237073	     -1.04673550	     11.11172940	      2.02177944	      0.03528671	     10.71112597	     -9.21425381	     -7.47069727	    -19.73858842	      1.03639309	      2.38463556	      7.90362400	     -4.98410867	     12.55993874	     25.72763046	     83.70511940	      7.41076835	     -5.93628134	     17.90847732	     24.70477151	     80.96206671
